<svg width="207" height="67" viewBox="0 0 207 67" fill="none" xmlns="http://www.w3.org/2000/svg">
<path fill-rule="evenodd" clip-rule="evenodd" d="M31.4535 24.4866C34.3047 24.4866 36.6159 22.1391 36.6159 19.2433C36.6159 16.3475 34.3047 14 31.4535 14C28.6025 14 26.2913 16.3475 26.2913 19.2433C26.2913 22.1391 28.6025 24.4866 31.4535 24.4866Z" fill="#4285F4"/>
<path fill-rule="evenodd" clip-rule="evenodd" d="M31.4535 38.2432C34.3047 38.2432 36.6159 35.8958 36.6159 33C36.6159 30.1041 34.3047 27.7567 31.4535 27.7567C28.6025 27.7567 26.2913 30.1041 26.2913 33C26.2913 35.8958 28.6025 38.2432 31.4535 38.2432Z" fill="#DC3438"/>
<path fill-rule="evenodd" clip-rule="evenodd" d="M31.4535 51.9999C34.3047 51.9999 36.6159 49.6525 36.6159 46.7567C36.6159 43.8608 34.3047 41.5134 31.4535 41.5134C28.6025 41.5134 26.2913 43.8608 26.2913 46.7567C26.2913 49.6525 28.6025 51.9999 31.4535 51.9999Z" fill="#FBBC05"/>
<path fill-rule="evenodd" clip-rule="evenodd" d="M18.3078 38.2432C21.1589 38.2432 23.4702 35.8958 23.4702 33C23.4702 30.1041 21.1589 27.7567 18.3078 27.7567C15.4568 27.7567 13.1455 30.1041 13.1455 33C13.1455 35.8958 15.4568 38.2432 18.3078 38.2432Z" fill="#34A853"/>
<path fill-rule="evenodd" clip-rule="evenodd" d="M18.3078 51.9997C21.1589 51.9997 23.4702 49.6522 23.4702 46.7564C23.4702 43.8606 21.1589 41.5131 18.3078 41.5131C15.4568 41.5131 13.1455 43.8606 13.1455 46.7564C13.1455 49.6522 15.4568 51.9997 18.3078 51.9997Z" fill="#4285F4"/>
<path fill-rule="evenodd" clip-rule="evenodd" d="M5.1624 51.9999C8.01347 51.9999 10.3247 49.6525 10.3247 46.7567C10.3247 43.8608 8.01347 41.5134 5.1624 41.5134C2.31132 41.5134 6.10352e-05 43.8608 6.10352e-05 46.7567C6.10352e-05 49.6525 2.31132 51.9999 5.1624 51.9999Z" fill="#DC3438"/>
<path d="M69.7308 33.45C66.4975 33.45 64.9141 32.6333 64.9808 31C64.9808 29.4667 66.5308 28.7 69.6308 28.7C70.3641 28.7 71.0641 28.7833 71.7308 28.95C72.8308 27.85 73.3808 26.1833 73.3808 23.95C73.3808 20.0833 70.7975 18.15 65.6308 18.15C62.9308 18.15 60.3641 18.7333 57.9308 19.9C57.0308 20.3333 56.2141 20.7333 55.4808 21.1C54.7808 21.4667 54.1308 21.65 53.5308 21.65C52.9308 21.65 52.6308 21.4667 52.6308 21.1C52.6308 20.6667 52.9641 20.0333 53.6308 19.2C54.2975 18.3333 55.2308 17.4667 56.4308 16.6C59.4975 14.4667 62.9808 13.3833 66.8808 13.35C71.9808 13.35 75.7308 14.3667 78.1308 16.4C80.1975 18.1 81.2308 20.4167 81.2308 23.35C81.2308 26.75 79.5641 29.35 76.2308 31.15C79.4308 32.9833 81.3308 35.2333 81.9308 37.9C82.1308 38.8333 82.2308 40.0667 82.2308 41.6C82.2308 43.1333 81.8141 44.5833 80.9808 45.95C80.1475 47.3167 79.0308 48.4667 77.6308 49.4C74.8308 51.2 71.2475 52.1 66.8808 52.1C63.7808 52.1 60.3308 51.4 56.5308 50C53.9975 49.0667 52.1308 47.95 50.9308 46.65C50.3308 46.0167 50.0308 45.3833 50.0308 44.75C50.0641 44.1167 50.3808 43.8 50.9808 43.8C51.6141 43.8 52.7975 44.0167 54.5308 44.45V44.4C54.5308 41.8 54.8308 39.1333 55.4308 36.4C56.4641 31.6333 57.6641 27.9 59.0308 25.2C60.4975 22.2 62.0141 20.7 63.5808 20.7C64.0141 20.7 64.2308 21.45 64.2308 22.95C64.2308 24.45 64.0808 25.9833 63.7808 27.55C63.5141 29.1167 63.2141 30.6667 62.8808 32.2C62.5808 33.7 62.2808 35.0667 61.9808 36.3C61.7141 37.5333 61.5808 38.4167 61.5808 38.95L61.0808 46.5C63.0475 47.0333 64.7141 47.3 66.0808 47.3C67.4475 47.3 68.6808 47.0667 69.7808 46.6C72.5475 45.4333 73.9308 43.4 73.9308 40.5C73.9308 38.7667 73.7641 37.3333 73.4308 36.2C73.0975 35.0667 72.4975 34.0667 71.6308 33.2C70.8641 33.3667 70.2308 33.45 69.7308 33.45ZM142.921 27.5C140.455 26.4333 139.221 25.4 139.221 24.4C139.221 23.8667 139.438 23.6167 139.871 23.65C140.471 23.65 141.155 23.8 141.921 24.1C142.688 24.3667 143.471 24.5833 144.271 24.75C147.005 19.5833 150.105 16.2 153.571 14.6C154.738 14.0667 155.905 13.7833 157.071 13.75C159.371 13.75 161.121 14.3167 162.321 15.45C163.555 16.55 164.171 17.9 164.171 19.5C164.171 22.3667 162.621 24.5833 159.521 26.15C156.988 27.4167 153.538 28.2 149.171 28.5C147.605 32.3667 146.821 36.5167 146.821 40.95C146.821 44.25 147.588 46.1667 149.121 46.7C150.188 47.0667 150.988 47.0833 151.521 46.75C152.055 46.3833 152.471 45.9167 152.771 45.35C153.071 44.75 153.221 43.8833 153.221 42.75C153.255 41.6167 152.938 40.6667 152.271 39.9C151.638 39.1 151.021 38.3667 150.421 37.7C150.721 36.6 151.155 35.6833 151.721 34.95C152.788 33.5167 153.705 32.8 154.471 32.8C155.238 32.8 155.855 33.0667 156.321 33.6C156.821 34.1333 157.221 34.8 157.521 35.6C157.821 36.4 158.055 37.2667 158.221 38.2C158.421 39.1333 158.638 40 158.871 40.8C159.105 41.6 159.388 42.2667 159.721 42.8C160.088 43.3333 160.555 43.6 161.121 43.6C161.721 43.6 162.255 43.3833 162.721 42.95C163.188 42.4833 163.605 41.9833 163.971 41.45C164.338 40.9167 164.671 40.4333 164.971 40C165.271 39.5333 165.571 39.3 165.871 39.3C166.205 39.3 166.521 39.5667 166.821 40.1C167.155 40.6333 167.321 41.1333 167.321 41.6C167.321 42.6667 166.788 43.9333 165.721 45.4C164.688 46.8667 163.355 47.6 161.721 47.6C160.088 47.5667 158.821 47.2167 157.921 46.55C157.355 47.95 156.388 49.1167 155.021 50.05C153.655 50.9833 151.705 51.45 149.171 51.45C146.671 51.45 144.521 50.8 142.721 49.5C140.555 47.9333 139.471 45.5 139.471 42.2C139.471 37.5 140.621 32.6 142.921 27.5ZM158.671 20.4C158.638 19.2333 158.205 18.65 157.371 18.65C156.571 18.65 155.521 19.2667 154.221 20.5C152.921 21.7333 151.671 23.45 150.471 25.65C154.105 25.0167 156.588 23.9 157.921 22.3C158.388 21.7 158.638 21.0667 158.671 20.4Z" fill="#4285F4"/>
<path d="M101.781 29.9C101.781 27.6667 103.515 26.55 106.981 26.55C107.848 26.55 108.381 26.8333 108.581 27.4C108.815 27.9667 108.931 28.8333 108.931 30C108.931 31.6333 108.565 34.1667 107.831 37.6C107.098 41.0333 106.748 43.35 106.781 44.55C106.781 45.1167 106.965 45.4 107.331 45.4C107.831 45.4 108.448 45.0833 109.181 44.45C109.915 43.8167 110.648 43.1333 111.381 42.4C112.115 41.6333 112.781 40.9333 113.381 40.3C114.015 39.6667 114.448 39.35 114.681 39.35C115.148 39.35 115.381 39.9167 115.381 41.05C115.381 43.3833 114.231 45.6333 111.931 47.8C108.065 50.0667 105.615 51.2 104.581 51.2C104.481 51.2 104.398 51.1833 104.331 51.15C103.065 51.15 102.165 50.7333 101.631 49.9C101.131 49.0667 100.815 48.0167 100.681 46.75C100.015 47.9833 99.0979 49.05 97.9312 49.95C96.7645 50.8167 95.4312 51.25 93.9312 51.25C91.2979 51.25 89.2645 50.75 87.8312 49.75C86.4312 48.75 85.7312 47.2667 85.7312 45.3C85.7312 44.4333 85.8479 43.6333 86.0812 42.9C86.3479 42.1667 86.7645 41.2667 87.3312 40.2L88.7812 27.9C89.8145 27.1 91.2979 26.7 93.2312 26.7C94.7645 26.7 95.6312 27.7 95.8312 29.7C95.9979 31.3333 95.9145 32.8 95.5812 34.1C95.2812 35.3667 94.8645 36.9833 94.3312 38.95C93.7979 40.8833 93.5312 42.6 93.5312 44.1C93.5312 45.3 94.2812 45.9 95.7812 45.9C97.4145 45.9 98.8312 44.4667 100.031 41.6C100.965 39.4 101.598 36.95 101.931 34.25C101.898 33.9833 101.865 33.65 101.831 33.25C101.831 32.8167 101.815 32.4 101.781 32C101.781 31.6 101.781 31.2 101.781 30.8V29.9ZM195.196 45.55C197.796 45.55 200.312 44.5167 202.746 42.45C203.646 41.6833 204.379 40.9833 204.946 40.35C205.512 39.6833 205.946 39.35 206.246 39.35C206.712 39.35 206.946 39.8167 206.946 40.75C206.946 41.6833 206.696 42.7333 206.196 43.9C205.696 45.0333 204.862 46.15 203.696 47.25C200.829 49.95 196.896 51.3 191.896 51.3C187.929 51.3 185.229 49.8667 183.796 47C183.296 46 183.046 44.5667 183.046 42.7C183.046 40.8333 183.412 38.9 184.146 36.9C184.879 34.8667 185.846 33.1167 187.046 31.65C188.279 30.1833 189.696 29.05 191.296 28.25C192.896 27.4167 194.596 27 196.396 27C198.229 27 199.629 27.45 200.596 28.35C201.596 29.25 202.096 30.4167 202.096 31.85C202.096 33.2833 201.729 34.4667 200.996 35.4C200.296 36.3 199.379 37.0667 198.246 37.7C197.112 38.3 195.846 38.85 194.446 39.35C193.079 39.8167 191.729 40.35 190.396 40.95V42.2C190.429 43.4 190.929 44.25 191.896 44.75C192.862 45.25 193.962 45.5167 195.196 45.55ZM194.346 31.45C192.612 31.45 191.412 33.4667 190.746 37.5C191.446 37.0333 192.096 36.6167 192.696 36.25C193.329 35.8833 193.879 35.5333 194.346 35.2C195.346 34.4667 195.862 33.6333 195.896 32.7C195.896 31.8667 195.379 31.45 194.346 31.45Z" fill="#EA4335"/>
<path d="M117.091 27.5C114.625 26.4333 113.391 25.4 113.391 24.4C113.391 23.8667 113.608 23.6167 114.041 23.65C114.641 23.65 115.325 23.8 116.091 24.1C116.858 24.3667 117.641 24.5833 118.441 24.75C121.175 19.5833 124.275 16.2 127.741 14.6C128.908 14.0667 130.075 13.7833 131.241 13.75C133.541 13.75 135.291 14.3167 136.491 15.45C137.725 16.55 138.341 17.9 138.341 19.5C138.341 22.3667 136.791 24.5833 133.691 26.15C131.158 27.4167 127.708 28.2 123.341 28.5C121.775 32.3667 120.991 36.5167 120.991 40.95C120.991 44.25 121.758 46.1667 123.291 46.7C124.358 47.0667 125.158 47.0833 125.691 46.75C126.225 46.3833 126.641 45.9167 126.941 45.35C127.241 44.75 127.391 43.8833 127.391 42.75C127.425 41.6167 127.108 40.6667 126.441 39.9C125.808 39.1 125.191 38.3667 124.591 37.7C124.891 36.6 125.325 35.6833 125.891 34.95C126.958 33.5167 127.875 32.8 128.641 32.8C129.408 32.8 130.025 33.0667 130.491 33.6C130.991 34.1333 131.391 34.8 131.691 35.6C131.991 36.4 132.225 37.2667 132.391 38.2C132.591 39.1333 132.808 40 133.041 40.8C133.275 41.6 133.558 42.2667 133.891 42.8C134.258 43.3333 134.725 43.6 135.291 43.6C135.891 43.6 136.425 43.3833 136.891 42.95C137.358 42.4833 137.775 41.9833 138.141 41.45C138.508 40.9167 138.841 40.4333 139.141 40C139.441 39.5333 139.741 39.3 140.041 39.3C140.375 39.3 140.691 39.5667 140.991 40.1C141.325 40.6333 141.491 41.1333 141.491 41.6C141.491 42.6667 140.958 43.9333 139.891 45.4C138.858 46.8667 137.525 47.6 135.891 47.6C134.258 47.5667 132.991 47.2167 132.091 46.55C131.525 47.95 130.558 49.1167 129.191 50.05C127.825 50.9833 125.875 51.45 123.341 51.45C120.841 51.45 118.691 50.8 116.891 49.5C114.725 47.9333 113.641 45.5 113.641 42.2C113.641 37.5 114.791 32.6 117.091 27.5ZM132.841 20.4C132.808 19.2333 132.375 18.65 131.541 18.65C130.741 18.65 129.691 19.2667 128.391 20.5C127.091 21.7333 125.841 23.45 124.641 25.65C128.275 25.0167 130.758 23.9 132.091 22.3C132.558 21.7 132.808 21.0667 132.841 20.4Z" fill="#FBBC05"/>
<path d="M175.702 51.15C170.935 51.1833 167.685 49.4 165.952 45.8C165.352 44.5333 165.052 42.95 165.052 41.05C165.052 39.1167 165.218 37.0667 165.552 34.9C166.218 30.5667 167.502 26.5667 169.402 22.9C170.368 21.0333 171.452 19.4333 172.652 18.1C175.285 15.1667 178.218 13.7167 181.452 13.75C182.885 13.75 184.002 14.15 184.802 14.95C185.635 15.7167 186.052 16.8333 186.052 18.3C186.052 19.7667 185.618 21.25 184.752 22.75C183.885 24.2167 182.768 25.75 181.402 27.35C180.068 28.9167 178.585 30.5667 176.952 32.3C175.318 34.0333 173.718 35.9167 172.152 37.95V39.95C172.152 41.8167 172.552 43.1833 173.352 44.05C174.152 44.9167 175.085 45.35 176.152 45.35C179.018 45.35 181.552 43.9333 183.752 41.1C184.652 39.9333 185.335 39.35 185.802 39.35C186.268 39.35 186.502 39.9167 186.502 41.05C186.502 42.1833 186.185 43.35 185.552 44.55C184.952 45.7167 184.152 46.8 183.152 47.8C182.152 48.7667 181.002 49.5667 179.702 50.2C178.402 50.8333 177.068 51.15 175.702 51.15ZM178.402 24.3C179.102 23.4333 179.652 22.65 180.052 21.95C180.452 21.25 180.652 20.5333 180.652 19.8C180.652 19.0333 180.385 18.65 179.852 18.65C178.685 18.65 177.385 19.85 175.952 22.25C174.552 24.65 173.502 27.8 172.802 31.7C173.935 29.9667 174.968 28.5167 175.902 27.35C176.868 26.1833 177.702 25.1667 178.402 24.3Z" fill="#34A853"/>
</svg>
