<svg width="62" height="64" viewBox="0 0 62 64" fill="none" xmlns="http://www.w3.org/2000/svg">
<path fill-rule="evenodd" clip-rule="evenodd" d="M52.6436 17.6616C57.4456 17.6616 61.3382 13.7079 61.3382 8.8308C61.3382 3.95369 57.4456 0 52.6436 0C47.8419 0 43.9493 3.95369 43.9493 8.8308C43.9493 13.7079 47.8419 17.6616 52.6436 17.6616Z" fill="#4A3AFF"/>
<path fill-rule="evenodd" clip-rule="evenodd" d="M52.6436 40.8308C57.4456 40.8308 61.3382 36.8772 61.3382 32.0001C61.3382 27.1228 57.4456 23.1692 52.6436 23.1692C47.8419 23.1692 43.9493 27.1228 43.9493 32.0001C43.9493 36.8772 47.8419 40.8308 52.6436 40.8308Z" fill="#2480EC"/>
<path fill-rule="evenodd" clip-rule="evenodd" d="M52.6436 64C57.4456 64 61.3382 60.0464 61.3382 55.1693C61.3382 50.292 57.4456 46.3384 52.6436 46.3384C47.8419 46.3384 43.9493 50.292 43.9493 55.1693C43.9493 60.0464 47.8419 64 52.6436 64Z" fill="#DC3438"/>
<path fill-rule="evenodd" clip-rule="evenodd" d="M30.5035 40.8308C35.3054 40.8308 39.1981 36.8772 39.1981 32.0001C39.1981 27.1228 35.3054 23.1692 30.5035 23.1692C25.7018 23.1692 21.8091 27.1228 21.8091 32.0001C21.8091 36.8772 25.7018 40.8308 30.5035 40.8308Z" fill="#61D376"/>
<path fill-rule="evenodd" clip-rule="evenodd" d="M30.5035 63.9995C35.3054 63.9995 39.1981 60.0459 39.1981 55.1687C39.1981 50.2917 35.3054 46.3379 30.5035 46.3379C25.7018 46.3379 21.8091 50.2917 21.8091 55.1687C21.8091 60.0459 25.7018 63.9995 30.5035 63.9995Z" fill="#FF7512"/>
<path fill-rule="evenodd" clip-rule="evenodd" d="M8.36371 64C13.1655 64 17.0581 60.0464 17.0581 55.1693C17.0581 50.292 13.1655 46.3384 8.36371 46.3384C3.5619 46.3384 -0.33075 50.292 -0.33075 55.1693C-0.33075 60.0464 3.5619 64 8.36371 64Z" fill="#F5C031"/>
</svg>
